<mxfile host="app.diagrams.net" modified="2021-09-19T21:49:15.159Z" agent="5.0 (Windows NT 10.0; Win64; x64) AppleWebKit/537.36 (KHTML, like Gecko) Chrome/93.0.4577.82 Safari/537.36" etag="iNKI-zlH7vi3Rif14i0w" version="15.2.9" type="github">
  <diagram name="Page-1" id="c4acf3e9-155e-7222-9cf6-157b1a14988f">
    <mxGraphModel dx="782" dy="710" grid="1" gridSize="10" guides="1" tooltips="1" connect="1" arrows="1" fold="1" page="1" pageScale="1" pageWidth="850" pageHeight="1100" background="none" math="0" shadow="0">
      <root>
        <mxCell id="0" />
        <mxCell id="1" parent="0" />
        <mxCell id="6B4cgG3p0T65H-fU0JBy-1" value="&lt;p style=&quot;margin: 0px ; margin-top: 4px ; text-align: center&quot;&gt;Car&lt;/p&gt;&lt;hr&gt;" style="verticalAlign=top;align=left;overflow=fill;fontSize=12;fontFamily=Helvetica;html=1;fontStyle=1" parent="1" vertex="1">
          <mxGeometry x="140" y="40" width="180" height="80" as="geometry" />
        </mxCell>
        <mxCell id="6B4cgG3p0T65H-fU0JBy-2" value="&lt;p style=&quot;margin: 0px ; margin-top: 4px ; text-align: center&quot;&gt;&lt;b&gt;ElectricMotor&lt;/b&gt;&lt;/p&gt;&lt;hr&gt;" style="verticalAlign=top;align=left;overflow=fill;fontSize=12;fontFamily=Helvetica;html=1;" parent="1" vertex="1">
          <mxGeometry x="520" y="40" width="170" height="80" as="geometry" />
        </mxCell>
        <mxCell id="6B4cgG3p0T65H-fU0JBy-3" value="&lt;p style=&quot;margin: 0px ; margin-top: 4px ; text-align: center&quot;&gt;&lt;b&gt;ElectricCar&lt;/b&gt;&lt;/p&gt;&lt;hr&gt;" style="verticalAlign=top;align=left;overflow=fill;fontSize=12;fontFamily=Helvetica;html=1;" parent="1" vertex="1">
          <mxGeometry x="140" y="240" width="180" height="80" as="geometry" />
        </mxCell>
        <mxCell id="6B4cgG3p0T65H-fU0JBy-4" value="&lt;p style=&quot;margin: 0px ; margin-top: 4px ; text-align: center&quot;&gt;&lt;b&gt;Engine&lt;/b&gt;&lt;/p&gt;&lt;hr&gt;" style="verticalAlign=top;align=left;overflow=fill;fontSize=12;fontFamily=Helvetica;html=1;" parent="1" vertex="1">
          <mxGeometry x="520" y="240" width="170" height="80" as="geometry" />
        </mxCell>
        <mxCell id="mqiM9Gofg6vmu2jNMP34-2" value="" style="endArrow=block;endSize=16;endFill=0;html=1;entryX=0.55;entryY=1.038;entryDx=0;entryDy=0;entryPerimeter=0;exitX=0.55;exitY=0;exitDx=0;exitDy=0;exitPerimeter=0;" edge="1" parent="1" source="6B4cgG3p0T65H-fU0JBy-3" target="6B4cgG3p0T65H-fU0JBy-1">
          <mxGeometry width="160" relative="1" as="geometry">
            <mxPoint x="239" y="230" as="sourcePoint" />
            <mxPoint x="310" y="180" as="targetPoint" />
          </mxGeometry>
        </mxCell>
        <mxCell id="mqiM9Gofg6vmu2jNMP34-4" value="" style="endArrow=block;endSize=16;endFill=0;html=1;entryX=0.55;entryY=1.038;entryDx=0;entryDy=0;entryPerimeter=0;" edge="1" parent="1" source="6B4cgG3p0T65H-fU0JBy-4">
          <mxGeometry width="160" relative="1" as="geometry">
            <mxPoint x="604.5" y="236.96" as="sourcePoint" />
            <mxPoint x="604.5" y="119.99999999999996" as="targetPoint" />
          </mxGeometry>
        </mxCell>
        <mxCell id="mqiM9Gofg6vmu2jNMP34-5" value="" style="endArrow=diamondThin;endFill=0;endSize=24;html=1;exitX=0;exitY=0.5;exitDx=0;exitDy=0;entryX=1;entryY=0.5;entryDx=0;entryDy=0;" edge="1" parent="1" source="6B4cgG3p0T65H-fU0JBy-4" target="6B4cgG3p0T65H-fU0JBy-1">
          <mxGeometry width="160" relative="1" as="geometry">
            <mxPoint x="424" y="340" as="sourcePoint" />
            <mxPoint x="424" y="60" as="targetPoint" />
            <Array as="points">
              <mxPoint x="420" y="280" />
              <mxPoint x="420" y="80" />
            </Array>
          </mxGeometry>
        </mxCell>
      </root>
    </mxGraphModel>
  </diagram>
</mxfile>
